<svg width="30" height="30" viewBox="0 0 30 30" fill="none" xmlns="http://www.w3.org/2000/svg">
<g clip-path="url(#clip0_16_41)">
<path d="M19.5001 14.9999C19.5001 16.1933 19.026 17.3379 18.1821 18.1818C17.3382 19.0257 16.1936 19.4999 15.0001 19.4999C13.8066 19.4999 12.662 19.0257 11.8181 18.1818C10.9742 17.3379 10.5001 16.1933 10.5001 14.9999C10.5001 14.7434 10.5271 14.4929 10.5736 14.2499H9.0001V20.2454C9.0001 20.6624 9.3376 20.9999 9.7546 20.9999H20.2471C20.4469 20.9995 20.6385 20.9198 20.7796 20.7783C20.9208 20.6369 21.0001 20.4452 21.0001 20.2454V14.2499H19.4266C19.4731 14.4929 19.5001 14.7434 19.5001 14.9999V14.9999ZM15.0001 17.9999C15.3942 17.9998 15.7844 17.922 16.1484 17.7711C16.5124 17.6203 16.8432 17.3991 17.1217 17.1204C17.4003 16.8417 17.6213 16.5109 17.772 16.1467C17.9227 15.7826 18.0002 15.3924 18.0001 14.9984C18 14.6043 17.9223 14.2141 17.7714 13.8501C17.6205 13.486 17.3994 13.1553 17.1207 12.8767C16.842 12.5981 16.5111 12.3772 16.147 12.2265C15.7829 12.0758 15.3927 11.9983 14.9986 11.9984C14.2028 11.9986 13.4396 12.3149 12.877 12.8778C12.3144 13.4407 11.9984 14.204 11.9986 14.9999C11.9988 15.7957 12.3151 16.5589 12.878 17.1215C13.4409 17.6841 14.2043 18.0001 15.0001 17.9999V17.9999ZM18.6001 11.8499H20.3986C20.5181 11.8499 20.6327 11.8025 20.7173 11.7181C20.802 11.6338 20.8497 11.5193 20.8501 11.3999V9.60135C20.8501 9.48161 20.8025 9.36677 20.7179 9.28209C20.6332 9.19742 20.5183 9.14985 20.3986 9.14985H18.6001C18.4804 9.14985 18.3655 9.19742 18.2808 9.28209C18.1962 9.36677 18.1486 9.48161 18.1486 9.60135V11.3999C18.1501 11.6474 18.3526 11.8499 18.6001 11.8499V11.8499ZM15.0001 0.599854C11.181 0.599854 7.51828 2.11699 4.81776 4.81752C2.11724 7.51804 0.600098 11.1807 0.600098 14.9999C0.600098 18.819 2.11724 22.4817 4.81776 25.1822C7.51828 27.8827 11.181 29.3999 15.0001 29.3999C16.8911 29.3999 18.7637 29.0274 20.5107 28.3037C22.2578 27.5801 23.8453 26.5194 25.1824 25.1822C26.5196 23.845 27.5803 22.2576 28.304 20.5105C29.0276 18.7634 29.4001 16.8909 29.4001 14.9999C29.4001 13.1088 29.0276 11.2363 28.304 9.48921C27.5803 7.74212 26.5196 6.15468 25.1824 4.81752C23.8453 3.48035 22.2578 2.41966 20.5107 1.69599C18.7637 0.972321 16.8911 0.599854 15.0001 0.599854V0.599854ZM22.5001 20.8334C22.5001 21.7499 21.7501 22.4999 20.8336 22.4999H9.1666C8.2501 22.4999 7.5001 21.7499 7.5001 20.8334V9.16635C7.5001 8.24985 8.2501 7.49985 9.1666 7.49985H20.8336C21.7501 7.49985 22.5001 8.24985 22.5001 9.16635V20.8334V20.8334Z" fill="white"/>
</g>
<defs>
<clipPath id="clip0_16_41">
<rect width="30" height="30" fill="white" transform="translate(0 -0.000244141)"/>
</clipPath>
</defs>
</svg>
