<svg width="30" height="30" viewBox="0 0 30 30" fill="none" xmlns="http://www.w3.org/2000/svg">
<g clip-path="url(#clip0_16_35)">
<path d="M15.0001 0.599854C7.0471 0.599854 0.600098 7.04685 0.600098 14.9999C0.600098 22.9529 7.0471 29.3999 15.0001 29.3999C22.9531 29.3999 29.4001 22.9529 29.4001 14.9999C29.4001 7.04685 22.9531 0.599854 15.0001 0.599854ZM18.4111 10.5509H16.2466C15.9901 10.5509 15.7051 10.8884 15.7051 11.3369V12.8999H18.4126L18.0031 15.1289H15.7051V21.8204H13.1506V15.1289H10.8331V12.8999H13.1506V11.5889C13.1506 9.70785 14.4556 8.17935 16.2466 8.17935H18.4111V10.5509V10.5509Z" fill="white"/>
</g>
<defs>
<clipPath id="clip0_16_35">
<rect width="30" height="30" fill="white" transform="translate(0 -0.000244141)"/>
</clipPath>
</defs>
</svg>
