<svg width="23" height="22" viewBox="0 0 23 22" fill="none" xmlns="http://www.w3.org/2000/svg">
<path d="M17.3333 8.27143C17.3333 8.16097 17.2438 8.07143 17.1333 8.07143H12.8667C12.7562 8.07143 12.6667 7.98189 12.6667 7.87143V3.41429C12.6667 3.30383 12.5771 3.21429 12.4667 3.21429H5.86667C5.75621 3.21429 5.66667 3.30383 5.66667 3.41429V17.5857C5.66667 17.6962 5.75621 17.7857 5.86667 17.7857H17.1333C17.2438 17.7857 17.3333 17.6962 17.3333 17.5857V8.27143ZM16.3808 6.85714C16.5571 6.85714 16.6472 6.64568 16.525 6.51858L14.1776 4.07527C14.0528 3.94539 13.8333 4.03372 13.8333 4.21384V6.65714C13.8333 6.7676 13.9229 6.85714 14.0333 6.85714H16.3808ZM5.08333 2H13.7481C13.8026 2 13.8546 2.02218 13.8924 2.06143L18.4442 6.79909C18.48 6.83634 18.5 6.88599 18.5 6.93765V18.3929C18.5 18.5539 18.4385 18.7083 18.3291 18.8222C18.2197 18.936 18.0714 19 17.9167 19H5.08333C4.92862 19 4.78025 18.936 4.67085 18.8222C4.56146 18.7083 4.5 18.5539 4.5 18.3929V2.60714C4.5 2.44612 4.56146 2.29169 4.67085 2.17783C4.78025 2.06397 4.92862 2 5.08333 2ZM8 10.7C8 10.5895 8.08954 10.5 8.2 10.5H14.8C14.9105 10.5 15 10.5895 15 10.7V11.5143C15 11.6247 14.9105 11.7143 14.8 11.7143H8.2C8.08954 11.7143 8 11.6247 8 11.5143V10.7ZM8 7.05714C8 6.94669 8.08954 6.85714 8.2 6.85714H10.7167C10.8271 6.85714 10.9167 6.94669 10.9167 7.05714V7.87143C10.9167 7.98189 10.8271 8.07143 10.7167 8.07143H8.2C8.08954 8.07143 8 7.98189 8 7.87143V7.05714ZM8 14.3429C8 14.2324 8.08954 14.1429 8.2 14.1429H14.8C14.9105 14.1429 15 14.2324 15 14.3429V15.1571C15 15.2676 14.9105 15.3571 14.8 15.3571H8.2C8.08954 15.3571 8 15.2676 8 15.1571V14.3429Z" fill="white"/>
</svg>
