<svg width="30" height="30" viewBox="0 0 30 30" fill="none" xmlns="http://www.w3.org/2000/svg">
<g clip-path="url(#clip0_16_39)">
<path d="M15 -0.000244141C6.71625 -0.000244141 0 6.71601 0 14.9998C0 23.2835 6.71625 29.9998 15 29.9998C23.2837 29.9998 30 23.2835 30 14.9998C30 6.71601 23.2837 -0.000244141 15 -0.000244141ZM9.37 6.75351C10.4225 6.75351 11.1238 7.45476 11.1238 8.38976C11.1238 9.32476 10.4225 10.026 9.25375 10.026C8.20125 10.0273 7.5 9.32476 7.5 8.38976C7.5 7.45476 8.20125 6.75351 9.37 6.75351ZM11.25 21.2498H7.5V11.2498H11.25V21.2498ZM23.75 21.2498H20.22V15.7848C20.22 14.2735 19.2788 13.9248 18.9263 13.9248C18.5738 13.9248 17.3962 14.1573 17.3962 15.7848C17.3962 16.0173 17.3962 21.2498 17.3962 21.2498H13.75V11.2498H17.3975V12.6448C17.8675 11.831 18.8087 11.2498 20.5737 11.2498C22.3387 11.2498 23.75 12.6448 23.75 15.7848V21.2498Z" fill="#F5F5F5"/>
</g>
<defs>
<clipPath id="clip0_16_39">
<rect width="30" height="30" fill="white" transform="translate(0 -0.000244141)"/>
</clipPath>
</defs>
</svg>
