<svg width="17" height="16" viewBox="0 0 17 16" fill="none" xmlns="http://www.w3.org/2000/svg">
<path d="M8.94382 1.5996L13.3324 5.98819C13.7242 6.38003 13.45 7.05922 12.8883 7.05922L10.3806 7.05922V10.6119C10.3806 10.9593 10.101 11.2388 9.75362 11.2388H7.24585C6.89842 11.2388 6.61891 10.9593 6.61891 10.6119V7.05922H4.11114C3.55212 7.05922 3.27522 6.38264 3.66706 5.98819L8.05565 1.5996C8.3012 1.35666 8.69826 1.35666 8.94382 1.5996ZM13.2018 9.56699H12.1569C11.9845 9.56699 11.8434 9.70805 11.8434 9.88046V12.0748C11.8434 12.5371 11.4699 12.9107 11.0075 12.9107H5.99197C5.5296 12.9107 5.15604 12.5371 5.15604 12.0748V9.88046C5.15604 9.70805 5.01498 9.56699 4.84257 9.56699H3.79767C3.62526 9.56699 3.4842 9.70805 3.4842 9.88046V12.0748C3.4842 13.4592 4.60747 14.5825 5.99197 14.5825H11.0075C12.392 14.5825 13.5153 13.4592 13.5153 12.0748V9.88046C13.5153 9.70805 13.3742 9.56699 13.2018 9.56699Z" fill="#01AFEF"/>
</svg>
