<svg width="122" height="59" viewBox="0 0 122 59" fill="none" xmlns="http://www.w3.org/2000/svg">
<g clip-path="url(#clip0_1_551)">
<path fill-rule="evenodd" clip-rule="evenodd" d="M43.1531 32.693L43.045 4.28978L39.6706 17.2405L39.6186 33.0466C39.6186 35.4439 38.3737 37.5176 36.3002 39.101C34.5289 40.0254 34.0706 44.1869 36.9186 44.2452L46.1013 44.2713C47.2901 44.3034 48.2008 40.8653 46.8898 39.8003C45.2687 38.6087 43.5374 36.109 43.1531 32.693ZM4.38116 32.693L4.48923 4.28978L7.86567 17.2405L7.91771 33.0466C7.91771 35.4439 9.16261 37.5176 11.2341 39.101C13.0054 40.0254 13.4577 44.1869 10.6157 44.2452L1.43303 44.2713C0.246174 44.3034 -0.664483 40.8653 0.632453 39.8003C2.26163 38.6087 3.99288 36.109 4.37515 32.693H4.38116Z" fill="#00486A"/>
<path fill-rule="evenodd" clip-rule="evenodd" d="M31.6548 28.0371L29.9676 22.1314L33.5862 8.61606C34.4208 6.44387 33.7363 4.66553 31.7549 4.04462C29.1991 3.70905 29.2911 0.781317 31.3967 0.606497L41.4039 0.536169C43.1591 0.67281 43.2592 3.2308 41.7301 3.71708C39.2563 4.45655 37.5771 6.36752 36.7585 9.55647L31.6548 28.0371ZM19.2219 43.4896C15.245 30.4525 11.7985 18.0543 7.81564 5.01517C7.17318 3.78139 6.01434 4.13505 5.60204 3.45586C4.77544 2.11357 5.71813 0.704959 7.27325 0.52813L23.1807 0.502006C26.1168 0.359337 26.4511 3.05197 24.0273 4.28776C22.4962 4.83834 23.3508 7.6013 24.4276 11.1399L30.5701 32.701L27.4438 43.5398L19.2219 43.4896Z" fill="#009EE0"/>
<path fill-rule="evenodd" clip-rule="evenodd" d="M55.1097 41.8379L51.2089 31.4953C51.2329 31.0734 52.1696 30.9649 52.4878 31.2944L55.512 39.533L58.6463 31.1377C59.597 31.0111 60.0653 31.1136 59.7911 31.5737L55.9884 41.8499C55.8556 41.9253 55.7056 41.9649 55.5531 41.9649C55.4005 41.9649 55.2505 41.9253 55.1177 41.8499L55.1097 41.8379ZM62.5571 41.6972L62.465 31.4692C62.6131 30.9407 63.6419 30.9588 63.726 31.4692V41.6791C63.6259 42.0488 62.5891 42.0308 62.5571 41.6972ZM62.5131 29.3292L62.5311 27.6091C62.5131 27.2072 63.6839 27.1811 63.732 27.593L63.6999 29.279C63.6899 29.6909 62.5291 29.6909 62.4991 29.3292H62.5131ZM70.1005 41.5867L70.0745 31.3768C70.1766 30.9749 71.2214 30.8885 71.3114 31.4029L71.3294 32.8437C74.948 29.5723 80.9144 31.4692 80.8383 36.0909L80.8883 41.6108C80.8883 42.073 79.6695 42.1071 79.6254 41.6369L79.6034 36.117C79.3092 34.2382 78.3725 32.9301 76.3591 32.5684C73.435 31.9133 71.2974 34.2121 71.2614 36.0166L71.3054 41.6791C71.1053 42.1332 70.1426 42.0569 70.1046 41.5867H70.1005ZM83.5362 41.5445C83.6363 42.0629 84.573 42.1332 84.8252 41.5344L84.7731 34.5014C84.8332 33.2435 86.4864 31.7747 88.776 32.6407L88.7 41.5304C88.686 42.077 89.9369 42.1031 89.9889 41.5666L90.0369 32.5704C91.51 31.9274 93.6816 32.9924 93.7576 34.3266L93.7896 41.6329C93.7896 42.0348 95.0105 42.0589 95.0345 41.6329L94.9685 34.1518C94.8264 32.0962 91.7341 30.2756 89.3124 31.5255C87.311 30.8945 85.7839 31.1397 84.5089 32.3735C83.5983 33.5048 83.4722 34.9656 83.5082 36.6937L83.5362 41.5445ZM107.267 33.0366L107.301 31.3949C107.325 30.993 108.394 30.8986 108.43 31.3949L108.48 41.653C108.372 42.1573 107.333 42.0549 107.267 41.653L107.193 40.162C105.346 42.1332 102.354 42.4427 99.9401 41.1004C97.3002 39.0367 96.8558 34.9335 99.4217 32.4076C101.477 30.563 105.454 30.6393 107.267 33.0285V33.0366ZM103.09 32.3996C103.9 32.4127 104.689 32.6658 105.356 33.1272C106.023 33.5886 106.54 34.2376 106.841 34.9929C107.142 35.7481 107.214 36.5758 107.048 37.372C106.882 38.1682 106.485 38.8975 105.908 39.4681C105.33 40.0387 104.598 40.4252 103.802 40.5792C103.007 40.7331 102.184 40.6476 101.436 40.3334C100.689 40.0191 100.051 39.4902 99.6018 38.8129C99.153 38.1357 98.9134 37.3404 98.9133 36.5269C98.9229 35.4238 99.3681 34.3694 100.151 33.5956C100.934 32.8217 101.992 32.3916 103.09 32.3996ZM111.138 41.5867L111.112 31.3768C111.212 30.9749 112.257 30.8885 112.349 31.4029V32.8437C115.974 29.5723 121.94 31.4692 121.866 36.0909L121.916 41.6108C121.916 42.073 120.695 42.1071 120.655 41.6369L120.629 36.117C120.337 34.2382 119.402 32.9301 117.387 32.5684C114.463 31.9133 112.323 34.2121 112.291 36.0166L112.331 41.6791C112.131 42.1332 111.17 42.0569 111.13 41.5867H111.138ZM66.4159 41.6972L66.3238 31.4692C66.4759 30.9407 67.5027 30.9588 67.5847 31.4692V41.6791C67.4847 42.0488 66.4499 42.0308 66.4159 41.6972ZM66.3739 29.3292L66.3919 27.6091C66.3739 27.2072 67.5447 27.1811 67.6027 27.593L67.5687 29.279C67.5687 29.6909 66.3999 29.6909 66.3679 29.3292H66.3739Z" fill="#00486A"/>
<path fill-rule="evenodd" clip-rule="evenodd" d="M0.0040983 54.5655C0.0040983 53.2715 0.346345 52.2587 1.03884 51.5273C1.38409 51.1627 1.80272 50.8761 2.26688 50.6866C2.73104 50.497 3.23008 50.4089 3.73079 50.4281C4.41115 50.4175 5.08136 50.5947 5.66818 50.9405C6.24098 51.2797 6.7007 51.7818 6.98914 52.3833C7.29758 53.0358 7.4517 53.751 7.43946 54.4731C7.45237 55.2111 7.28903 55.9415 6.96312 56.6031C6.66436 57.1987 6.19257 57.6892 5.61014 58.0097C5.03219 58.329 4.38242 58.4943 3.72278 58.4899C3.03194 58.5018 2.35166 58.3187 1.75936 57.9615C1.19005 57.6124 0.73394 57.1049 0.446417 56.5006C0.154002 55.8943 0.00274944 55.2292 0.0040983 54.5555V54.5655ZM1.06486 54.5897C1.06486 55.5301 1.31504 56.2675 1.82541 56.8C2.07021 57.0593 2.36505 57.2658 2.69195 57.4069C3.01885 57.548 3.37095 57.6208 3.72678 57.6208C4.08262 57.6208 4.43472 57.548 4.76162 57.4069C5.08852 57.2658 5.38335 57.0593 5.62815 56.8C6.13052 56.2555 6.3807 55.4838 6.3807 54.4771C6.39094 53.9072 6.28327 53.3413 6.06447 52.8153C5.86557 52.3641 5.5379 51.9822 5.12288 51.7179C4.70787 51.4536 4.22412 51.3187 3.73279 51.3304C3.38692 51.323 3.04309 51.3853 2.72165 51.5137C2.40021 51.6421 2.1077 51.8339 1.86144 52.0779C1.33506 52.5802 1.06086 53.4202 1.06086 54.5937L1.06486 54.5897ZM20.0245 58.3634L17.0224 50.5628H18.1332L20.1546 56.2334C20.3147 56.6875 20.4569 57.1135 20.5649 57.5093C20.683 57.0813 20.8251 56.6614 20.9832 56.2334L23.0807 50.5628H24.1335L21.1013 58.3634H20.0245ZM34.1207 58.3634V50.5628H39.7448V51.4771H35.1555V53.8763H39.4425V54.7906H35.1555V57.4491H39.9289V58.3634H34.1207ZM50.4145 58.3634V50.5628H53.8649C54.3996 50.5366 54.9348 50.6046 55.4461 50.7637C55.807 50.907 56.1099 51.1673 56.3067 51.5032C56.5219 51.857 56.6342 52.2642 56.6309 52.6787C56.6437 53.1998 56.4517 53.705 56.0966 54.0853C55.7363 54.4731 55.1839 54.7062 54.4434 54.8167C54.6655 54.9164 54.8729 55.0462 55.0598 55.2025C55.3869 55.511 55.6734 55.8601 55.9124 56.2414L57.2574 58.3634H55.9725L54.9437 56.7458C54.6435 56.2776 54.3913 55.9159 54.1992 55.6627C54.0539 55.4636 53.8791 55.2881 53.6808 55.1422C53.5371 55.0506 53.3797 54.9827 53.2145 54.9413C53.0239 54.911 52.8309 54.8989 52.6381 54.9051H51.4492V58.3694L50.4145 58.3634ZM51.4492 54.0029H53.6508C54.0236 54.0146 54.3959 53.9665 54.7536 53.8602C54.9992 53.773 55.21 53.608 55.354 53.39C55.4865 53.1797 55.556 52.9356 55.5542 52.6867C55.5575 52.5152 55.5234 52.345 55.4543 52.1881C55.3851 52.0312 55.2826 51.8914 55.1539 51.7785C54.8857 51.5373 54.4594 51.4188 53.891 51.4188H51.4492V54.0029ZM66.9444 55.8536L67.9131 55.7692C67.9382 56.1118 68.0468 56.4431 68.2293 56.7337C68.4305 57.0062 68.7017 57.2188 69.0139 57.3486C69.393 57.5114 69.8025 57.5909 70.2147 57.5817C70.5675 57.5894 70.9186 57.53 71.2495 57.4069C71.5154 57.3139 71.748 57.144 71.918 56.9186C72.0641 56.7263 72.1436 56.4913 72.1441 56.2494C72.1459 56.0181 72.0697 55.7929 71.928 55.6104C71.7433 55.3946 71.502 55.2352 71.2315 55.1503C71.0313 55.0739 70.557 54.9493 69.8465 54.7705C69.3289 54.6638 68.8243 54.5015 68.3414 54.2862C68.0093 54.1156 67.7252 53.8641 67.5148 53.5548C67.3306 53.2644 67.2346 52.9265 67.2386 52.5822C67.2408 52.1873 67.3599 51.8019 67.5808 51.475C67.8138 51.1183 68.1538 50.8452 68.5515 50.6954C69.0057 50.5125 69.4913 50.421 69.9806 50.4261C70.5029 50.4161 71.0219 50.5104 71.5077 50.7034C71.9201 50.8686 72.2731 51.1551 72.5204 51.5253C72.761 51.8923 72.8941 52.3198 72.9047 52.7591L71.918 52.8334C71.8911 52.4049 71.6961 52.0045 71.3756 51.7202C71.0734 51.467 70.613 51.3424 70.0206 51.3424C69.3941 51.3424 68.9438 51.457 68.6596 51.686C68.5292 51.7817 68.4232 51.9069 68.3502 52.0514C68.2771 52.196 68.2391 52.3558 68.2393 52.5179C68.2354 52.6479 68.2605 52.7771 68.3128 52.896C68.365 53.0149 68.4432 53.1206 68.5415 53.2052C68.7417 53.39 69.2601 53.5749 70.0947 53.7678C70.6822 53.8797 71.2583 54.0451 71.8159 54.2621C72.217 54.432 72.5634 54.7103 72.8166 55.0659C73.0291 55.3953 73.1392 55.7807 73.1329 56.1731C73.1315 56.5906 73.0099 56.9989 72.7826 57.3486C72.5275 57.7217 72.1751 58.0172 71.7639 58.2026C71.2924 58.4107 70.7817 58.5142 70.2668 58.506C69.6613 58.5263 69.0581 58.4202 68.4955 58.1946C68.0368 58.0052 67.647 57.679 67.3787 57.2602C67.1026 56.8428 66.9518 56.3546 66.9444 55.8536ZM83.5964 58.3613V50.5628H89.2124V51.4771H84.6231V53.8763H88.9182V54.7906H84.6231V57.4491H89.3966V58.3634L83.5964 58.3613ZM99.0075 58.3613L101.99 50.5608H103.118L106.285 58.3613H105.114L104.211 55.9983H100.943L100.1 58.3613H99.0075ZM101.263 55.1603H103.911L103.11 52.9942C102.868 52.3431 102.676 51.7885 102.55 51.3665C102.44 51.8762 102.298 52.3782 102.124 52.8696L101.263 55.1603ZM115.816 55.8536L116.784 55.7692C116.812 56.1116 116.921 56.4424 117.103 56.7337C117.302 57.0089 117.575 57.222 117.889 57.3486C118.268 57.5115 118.678 57.591 119.09 57.5817C119.443 57.5894 119.794 57.53 120.125 57.4069C120.391 57.3139 120.623 57.144 120.793 56.9186C120.94 56.7267 121.02 56.4914 121.019 56.2494C121.022 56.0175 120.945 55.7918 120.801 55.6104C120.614 55.3959 120.372 55.2368 120.101 55.1503C119.901 55.0739 119.432 54.9493 118.722 54.7705C118.205 54.6646 117.701 54.5022 117.219 54.2862C116.886 54.1161 116.601 53.8646 116.39 53.5548C116.206 53.2644 116.11 52.9265 116.114 52.5822C116.117 52.1886 116.233 51.8042 116.448 51.475C116.687 51.1205 117.029 50.8483 117.427 50.6954C117.881 50.5117 118.366 50.4202 118.856 50.4261C119.376 50.4153 119.892 50.5096 120.375 50.7034C120.789 50.8689 121.145 51.1552 121.396 51.5253C121.629 51.8956 121.762 52.3211 121.78 52.7591L120.779 52.8334C120.769 52.6212 120.716 52.4133 120.624 52.2221C120.532 52.0308 120.402 51.8601 120.243 51.7202C119.933 51.467 119.482 51.3424 118.89 51.3424C118.263 51.3424 117.811 51.457 117.527 51.686C117.394 51.7801 117.286 51.9043 117.21 52.0486C117.135 52.1928 117.094 52.353 117.093 52.5159C117.091 52.6462 117.117 52.7752 117.17 52.894C117.224 53.0128 117.302 53.1183 117.401 53.2032C117.601 53.388 118.111 53.5729 118.948 53.7658C119.538 53.8777 120.117 54.0432 120.677 54.2601C121.08 54.4267 121.427 54.7056 121.678 55.0639C121.899 55.3901 122.013 55.7768 122.006 56.1711C122.005 56.5901 121.88 56.9994 121.646 57.3466C121.394 57.7228 121.041 58.0191 120.627 58.2006C120.156 58.4095 119.645 58.513 119.13 58.504C118.528 58.5238 117.928 58.4177 117.369 58.1926C116.912 58.0036 116.522 57.6825 116.248 57.2702C115.98 56.8497 115.832 56.3629 115.822 55.8636L115.816 55.8536Z" fill="#009EE0"/>
</g>
<defs>
<clipPath id="clip0_1_551">
<rect width="122" height="58" fill="white" transform="translate(0 0.5)"/>
</clipPath>
</defs>
</svg>
