<svg width="122" height="58" viewBox="0 0 122 58" fill="none" xmlns="http://www.w3.org/2000/svg">
<g clip-path="url(#clip0_8_3708)">
<path fill-rule="evenodd" clip-rule="evenodd" d="M43.1531 32.193L43.045 3.78979L39.6706 16.7405L39.6186 32.5467C39.6186 34.9439 38.3737 37.0176 36.3002 38.601C34.5289 39.5254 34.0706 43.6869 36.9186 43.7452L46.1013 43.7713C47.2901 43.8034 48.2008 40.3653 46.8898 39.3003C45.2687 38.1087 43.5374 35.609 43.1531 32.193ZM4.38116 32.193L4.48923 3.78979L7.86567 16.7405L7.91771 32.5467C7.91771 34.9439 9.16261 37.0176 11.2341 38.601C13.0054 39.5254 13.4577 43.6869 10.6157 43.7452L1.43303 43.7713C0.246174 43.8034 -0.664483 40.3653 0.632453 39.3003C2.26163 38.1087 3.99288 35.609 4.37515 32.193H4.38116Z" fill="white"/>
<path fill-rule="evenodd" clip-rule="evenodd" d="M31.6548 27.5372L29.9676 21.6315L33.5862 8.11609C34.4208 5.9439 33.7363 4.16556 31.7549 3.54465C29.1991 3.20908 29.2911 0.281347 31.3967 0.106527L41.4039 0.0361995C43.1591 0.17284 43.2592 2.73083 41.7301 3.21711C39.2563 3.95658 37.5771 5.86755 36.7585 9.0565L31.6548 27.5372ZM19.2219 42.9896C15.245 29.9525 11.7985 17.5544 7.81564 4.5152C7.17318 3.28142 6.01434 3.63508 5.60204 2.95589C4.77544 1.6136 5.71813 0.204989 7.27325 0.0281601L23.1807 0.00203663C26.1168 -0.140632 26.4511 2.552 24.0273 3.78779C22.4962 4.33837 23.3508 7.10133 24.4276 10.6399L30.5701 32.201L27.4438 43.0399L19.2219 42.9896Z" fill="#E1E1E1"/>
<path fill-rule="evenodd" clip-rule="evenodd" d="M55.1097 41.3378L51.2089 30.9953C51.2329 30.5733 52.1696 30.4648 52.4878 30.7944L55.512 39.033L58.6463 30.6376C59.597 30.511 60.0653 30.6135 59.7911 31.0737L55.9884 41.3499C55.8556 41.4252 55.7056 41.4648 55.5531 41.4648C55.4005 41.4648 55.2505 41.4252 55.1177 41.3499L55.1097 41.3378ZM62.5571 41.1971L62.465 30.9692C62.6131 30.4407 63.6419 30.4588 63.726 30.9692V41.1791C63.6259 41.5488 62.5891 41.5307 62.5571 41.1971ZM62.5131 28.8291L62.5311 27.1091C62.5131 26.7072 63.6839 26.6811 63.732 27.093L63.6999 28.7789C63.6899 29.1908 62.5291 29.1908 62.4991 28.8291H62.5131ZM70.1005 41.0866L70.0745 30.8767C70.1766 30.4749 71.2214 30.3885 71.3114 30.9029L71.3294 32.3436C74.948 29.0723 80.9144 30.9692 80.8383 35.5909L80.8883 41.1107C80.8883 41.5729 79.6695 41.6071 79.6254 41.1369L79.6034 35.617C79.3092 33.7382 78.3725 32.43 76.3591 32.0683C73.435 31.4133 71.2974 33.712 71.2614 35.5165L71.3054 41.1791C71.1053 41.6332 70.1426 41.5568 70.1046 41.0866H70.1005ZM83.5362 41.0444C83.6363 41.5629 84.573 41.6332 84.8252 41.0344L84.7731 34.0014C84.8332 32.7435 86.4864 31.2746 88.776 32.1407L88.7 41.0304C88.686 41.5769 89.9369 41.603 89.9889 41.0665L90.0369 32.0703C91.51 31.4273 93.6816 32.4923 93.7576 33.8266L93.7896 41.1328C93.7896 41.5347 95.0105 41.5588 95.0345 41.1328L94.9685 33.6518C94.8264 31.5961 91.7341 29.7756 89.3124 31.0254C87.311 30.3945 85.7839 30.6396 84.5089 31.8734C83.5983 33.0047 83.4722 34.4656 83.5082 36.1937L83.5362 41.0444ZM107.267 32.5365L107.301 30.8948C107.325 30.4929 108.394 30.3985 108.43 30.8948L108.48 41.1529C108.372 41.6573 107.333 41.5548 107.267 41.1529L107.193 39.6619C105.346 41.6332 102.354 41.9426 99.9401 40.6003C97.3002 38.5367 96.8558 34.4334 99.4217 31.9076C101.477 30.0629 105.454 30.1393 107.267 32.5285V32.5365ZM103.09 31.8995C103.9 31.9126 104.689 32.1657 105.356 32.6271C106.023 33.0885 106.54 33.7376 106.841 34.4928C107.142 35.2481 107.214 36.0758 107.048 36.872C106.882 37.6682 106.485 38.3974 105.908 38.968C105.33 39.5386 104.598 39.9252 103.802 40.0791C103.007 40.2331 102.184 40.1476 101.436 39.8333C100.689 39.5191 100.051 38.9901 99.6018 38.3129C99.153 37.6357 98.9134 36.8404 98.9133 36.0269C98.9229 34.9237 99.3681 33.8694 100.151 33.0955C100.934 32.3217 101.992 31.8915 103.09 31.8995ZM111.138 41.0866L111.112 30.8767C111.212 30.4749 112.257 30.3885 112.349 30.9029V32.3436C115.974 29.0723 121.94 30.9692 121.866 35.5909L121.916 41.1107C121.916 41.5729 120.695 41.6071 120.655 41.1369L120.629 35.617C120.337 33.7382 119.402 32.43 117.387 32.0683C114.463 31.4133 112.323 33.712 112.291 35.5165L112.331 41.1791C112.131 41.6332 111.17 41.5568 111.13 41.0866H111.138ZM66.4159 41.1971L66.3238 30.9692C66.4759 30.4407 67.5027 30.4588 67.5847 30.9692V41.1791C67.4847 41.5488 66.4499 41.5307 66.4159 41.1971ZM66.3739 28.8291L66.3919 27.1091C66.3739 26.7072 67.5447 26.6811 67.6027 27.093L67.5687 28.7789C67.5687 29.1908 66.3999 29.1908 66.3679 28.8291H66.3739Z" fill="white"/>
<path fill-rule="evenodd" clip-rule="evenodd" d="M0.0040983 54.0655C0.0040983 52.7715 0.346345 51.7587 1.03884 51.0273C1.38409 50.6627 1.80272 50.3761 2.26688 50.1866C2.73104 49.997 3.23008 49.9089 3.73079 49.9281C4.41115 49.9175 5.08136 50.0947 5.66818 50.4405C6.24098 50.7797 6.7007 51.2818 6.98914 51.8833C7.29758 52.5358 7.4517 53.251 7.43946 53.9731C7.45237 54.7111 7.28903 55.4415 6.96312 56.1031C6.66436 56.6987 6.19257 57.1892 5.61014 57.5097C5.03219 57.829 4.38242 57.9943 3.72278 57.9899C3.03194 58.0018 2.35166 57.8187 1.75936 57.4615C1.19005 57.1124 0.73394 56.6049 0.446417 56.0006C0.154002 55.3943 0.00274944 54.7292 0.0040983 54.0555V54.0655ZM1.06486 54.0897C1.06486 55.0301 1.31504 55.7675 1.82541 56.3C2.07021 56.5593 2.36505 56.7658 2.69195 56.9069C3.01885 57.048 3.37095 57.1208 3.72678 57.1208C4.08262 57.1208 4.43472 57.048 4.76162 56.9069C5.08852 56.7658 5.38335 56.5593 5.62815 56.3C6.13052 55.7555 6.3807 54.9838 6.3807 53.9771C6.39094 53.4072 6.28327 52.8413 6.06447 52.3153C5.86557 51.8641 5.5379 51.4822 5.12288 51.2179C4.70787 50.9536 4.22412 50.8187 3.73279 50.8304C3.38692 50.823 3.04309 50.8853 2.72165 51.0137C2.40021 51.1421 2.1077 51.3339 1.86144 51.5779C1.33506 52.0802 1.06086 52.9202 1.06086 54.0937L1.06486 54.0897ZM20.0245 57.8634L17.0224 50.0628H18.1332L20.1546 55.7334C20.3147 56.1875 20.4569 56.6135 20.5649 57.0093C20.683 56.5813 20.8251 56.1614 20.9832 55.7334L23.0807 50.0628H24.1335L21.1013 57.8634H20.0245ZM34.1207 57.8634V50.0628H39.7448V50.9771H35.1555V53.3763H39.4425V54.2906H35.1555V56.9491H39.9289V57.8634H34.1207ZM50.4145 57.8634V50.0628H53.8649C54.3996 50.0366 54.9348 50.1046 55.4461 50.2637C55.807 50.407 56.1099 50.6673 56.3067 51.0032C56.5219 51.357 56.6342 51.7642 56.6309 52.1787C56.6437 52.6998 56.4517 53.205 56.0966 53.5853C55.7363 53.9731 55.1839 54.2062 54.4434 54.3167C54.6655 54.4164 54.8729 54.5462 55.0598 54.7025C55.3869 55.011 55.6734 55.3601 55.9124 55.7414L57.2574 57.8634H55.9725L54.9437 56.2458C54.6435 55.7776 54.3913 55.4159 54.1992 55.1627C54.0539 54.9636 53.8791 54.7881 53.6808 54.6422C53.5371 54.5506 53.3797 54.4827 53.2145 54.4413C53.0239 54.411 52.8309 54.3989 52.6381 54.4051H51.4492V57.8694L50.4145 57.8634ZM51.4492 53.5029H53.6508C54.0236 53.5146 54.3959 53.4665 54.7536 53.3602C54.9992 53.273 55.21 53.108 55.354 52.89C55.4865 52.6797 55.556 52.4356 55.5542 52.1867C55.5575 52.0152 55.5234 51.845 55.4543 51.6881C55.3851 51.5312 55.2826 51.3914 55.1539 51.2785C54.8857 51.0373 54.4594 50.9188 53.891 50.9188H51.4492V53.5029ZM66.9444 55.3536L67.9131 55.2692C67.9382 55.6118 68.0468 55.9431 68.2293 56.2337C68.4305 56.5062 68.7017 56.7188 69.0139 56.8486C69.393 57.0114 69.8025 57.0909 70.2147 57.0817C70.5675 57.0894 70.9186 57.03 71.2495 56.9069C71.5154 56.8139 71.748 56.644 71.918 56.4186C72.0641 56.2263 72.1436 55.9913 72.1441 55.7494C72.1459 55.5181 72.0697 55.2929 71.928 55.1104C71.7433 54.8946 71.502 54.7352 71.2315 54.6503C71.0313 54.5739 70.557 54.4493 69.8465 54.2705C69.3289 54.1638 68.8243 54.0015 68.3414 53.7862C68.0093 53.6156 67.7252 53.3641 67.5148 53.0548C67.3306 52.7644 67.2346 52.4265 67.2386 52.0822C67.2408 51.6873 67.3599 51.3019 67.5808 50.975C67.8138 50.6183 68.1538 50.3452 68.5515 50.1954C69.0057 50.0125 69.4913 49.921 69.9806 49.9261C70.5029 49.9161 71.0219 50.0104 71.5077 50.2034C71.9201 50.3686 72.2731 50.6551 72.5204 51.0253C72.761 51.3923 72.8941 51.8198 72.9047 52.2591L71.918 52.3334C71.8911 51.9049 71.6961 51.5045 71.3756 51.2202C71.0734 50.967 70.613 50.8424 70.0206 50.8424C69.3941 50.8424 68.9438 50.957 68.6596 51.186C68.5292 51.2817 68.4232 51.4069 68.3502 51.5514C68.2771 51.696 68.2391 51.8558 68.2393 52.0179C68.2354 52.1479 68.2605 52.2771 68.3128 52.396C68.365 52.5149 68.4432 52.6206 68.5415 52.7052C68.7417 52.89 69.2601 53.0749 70.0947 53.2678C70.6822 53.3797 71.2583 53.5451 71.8159 53.7621C72.217 53.932 72.5634 54.2103 72.8166 54.5659C73.0291 54.8953 73.1392 55.2807 73.1329 55.6731C73.1315 56.0906 73.0099 56.4989 72.7826 56.8486C72.5275 57.2217 72.1751 57.5172 71.7639 57.7026C71.2924 57.9107 70.7817 58.0142 70.2668 58.006C69.6613 58.0263 69.0581 57.9202 68.4955 57.6946C68.0368 57.5052 67.647 57.179 67.3787 56.7602C67.1026 56.3428 66.9518 55.8546 66.9444 55.3536ZM83.5964 57.8613V50.0628H89.2124V50.9771H84.6231V53.3763H88.9182V54.2906H84.6231V56.9491H89.3966V57.8634L83.5964 57.8613ZM99.0075 57.8613L101.99 50.0608H103.118L106.285 57.8613H105.114L104.211 55.4983H100.943L100.1 57.8613H99.0075ZM101.263 54.6603H103.911L103.11 52.4942C102.868 51.8431 102.676 51.2885 102.55 50.8665C102.44 51.3762 102.298 51.8782 102.124 52.3696L101.263 54.6603ZM115.816 55.3536L116.784 55.2692C116.812 55.6116 116.921 55.9424 117.103 56.2337C117.302 56.5089 117.575 56.722 117.889 56.8486C118.268 57.0115 118.678 57.091 119.09 57.0817C119.443 57.0894 119.794 57.03 120.125 56.9069C120.391 56.8139 120.623 56.644 120.793 56.4186C120.94 56.2267 121.02 55.9914 121.019 55.7494C121.022 55.5175 120.945 55.2918 120.801 55.1104C120.614 54.8959 120.372 54.7368 120.101 54.6503C119.901 54.5739 119.432 54.4493 118.722 54.2705C118.205 54.1646 117.701 54.0022 117.219 53.7862C116.886 53.6161 116.601 53.3646 116.39 53.0548C116.206 52.7644 116.11 52.4265 116.114 52.0822C116.117 51.6886 116.233 51.3042 116.448 50.975C116.687 50.6205 117.029 50.3483 117.427 50.1954C117.881 50.0117 118.366 49.9202 118.856 49.9261C119.376 49.9153 119.892 50.0096 120.375 50.2034C120.789 50.3689 121.145 50.6552 121.396 51.0253C121.629 51.3956 121.762 51.8211 121.78 52.2591L120.779 52.3334C120.769 52.1212 120.716 51.9133 120.624 51.7221C120.532 51.5308 120.402 51.3601 120.243 51.2202C119.933 50.967 119.482 50.8424 118.89 50.8424C118.263 50.8424 117.811 50.957 117.527 51.186C117.394 51.2801 117.286 51.4043 117.21 51.5486C117.135 51.6928 117.094 51.853 117.093 52.0159C117.091 52.1462 117.117 52.2752 117.17 52.394C117.224 52.5128 117.302 52.6183 117.401 52.7032C117.601 52.888 118.111 53.0729 118.948 53.2658C119.538 53.3777 120.117 53.5432 120.677 53.7601C121.08 53.9267 121.427 54.2056 121.678 54.5639C121.899 54.8901 122.013 55.2768 122.006 55.6711C122.005 56.0901 121.88 56.4994 121.646 56.8466C121.394 57.2228 121.041 57.5191 120.627 57.7006C120.156 57.9095 119.645 58.013 119.13 58.004C118.528 58.0238 117.928 57.9177 117.369 57.6926C116.912 57.5036 116.522 57.1825 116.248 56.7702C115.98 56.3497 115.832 55.8629 115.822 55.3636L115.816 55.3536Z" fill="#E1E1E1"/>
</g>
<defs>
<clipPath id="clip0_8_3708">
<rect width="122" height="58" fill="white"/>
</clipPath>
</defs>
</svg>
