<svg width="122" height="58" viewBox="0 0 122 58" fill="none" xmlns="http://www.w3.org/2000/svg">
<g clip-path="url(#clip0_110_28)">
<path fill-rule="evenodd" clip-rule="evenodd" d="M43.1531 32.193L43.045 3.78978L39.6706 16.7405L39.6185 32.5466C39.6185 34.9439 38.3736 37.0176 36.3001 38.601C34.5288 39.5254 34.0705 43.6869 36.9186 43.7452L46.1012 43.7713C47.2901 43.8034 48.2007 40.3653 46.8898 39.3003C45.2686 38.1087 43.5373 35.609 43.1531 32.193ZM4.3811 32.193L4.48917 3.78978L7.86561 16.7405L7.91765 32.5466C7.91765 34.9439 9.16254 37.0176 11.234 38.601C13.0053 39.5254 13.4576 43.6869 10.6156 43.7452L1.43297 43.7713C0.246113 43.8034 -0.664544 40.3653 0.632392 39.3003C2.26157 38.1087 3.99282 35.609 4.37509 32.193H4.3811Z" fill="#00486A"/>
<path fill-rule="evenodd" clip-rule="evenodd" d="M31.6548 27.5371L29.9676 21.6314L33.5862 8.11606C34.4208 5.94387 33.7363 4.16553 31.7549 3.54462C29.1991 3.20905 29.2911 0.281317 31.3966 0.106497L41.4039 0.036169C43.1591 0.17281 43.2592 2.7308 41.7301 3.21708C39.2563 3.95655 37.5771 5.86752 36.7585 9.05647L31.6548 27.5371ZM19.2219 42.9896C15.245 29.9525 11.7985 17.5543 7.81564 4.51517C7.17318 3.28139 6.01434 3.63505 5.60204 2.95586C4.77544 1.61357 5.71813 0.204959 7.27325 0.0281296L23.1807 0.00200611C26.1168 -0.140663 26.4511 2.55197 24.0273 3.78776C22.4962 4.33834 23.3508 7.1013 24.4276 10.6399L30.5701 32.201L27.4438 43.0398L19.2219 42.9896Z" fill="#009EE0"/>
<path fill-rule="evenodd" clip-rule="evenodd" d="M55.1098 41.3379L51.209 30.9953C51.233 30.5734 52.1697 30.4649 52.4879 30.7944L55.5121 39.033L58.6463 30.6377C59.597 30.5111 60.0654 30.6136 59.7912 31.0737L55.9884 41.3499C55.8556 41.4253 55.7057 41.4649 55.5531 41.4649C55.4006 41.4649 55.2506 41.4253 55.1178 41.3499L55.1098 41.3379ZM62.5572 41.1972L62.4651 30.9692C62.6132 30.4407 63.642 30.4588 63.726 30.9692V41.1791C63.6259 41.5488 62.5892 41.5308 62.5572 41.1972ZM62.5131 28.8292L62.5312 27.1091C62.5131 26.7072 63.684 26.6811 63.732 27.093L63.7 28.779C63.69 29.1909 62.5292 29.1909 62.4991 28.8292H62.5131ZM70.1006 41.0867L70.0746 30.8768C70.1767 30.4749 71.2214 30.3885 71.3115 30.9029L71.3295 32.3437C74.9481 29.0723 80.9144 30.9692 80.8384 35.5909L80.8884 41.1108C80.8884 41.573 79.6695 41.6071 79.6255 41.1369L79.6035 35.617C79.3093 33.7382 78.3726 32.4301 76.3591 32.0684C73.435 31.4133 71.2975 33.7121 71.2614 35.5166L71.3055 41.1791C71.1053 41.6332 70.1426 41.5569 70.1046 41.0867H70.1006ZM83.5363 41.0445C83.6364 41.5629 84.573 41.6332 84.8252 41.0344L84.7732 34.0014C84.8332 32.7435 86.4864 31.2747 88.7761 32.1407L88.7 41.0304C88.686 41.577 89.9369 41.6031 89.989 41.0666L90.037 32.0704C91.51 31.4274 93.6816 32.4924 93.7577 33.8266L93.7897 41.1329C93.7897 41.5348 95.0106 41.5589 95.0346 41.1329L94.9685 33.6518C94.8264 31.5962 91.7342 29.7756 89.3125 31.0255C87.311 30.3945 85.7839 30.6397 84.509 31.8735C83.5983 33.0048 83.4723 34.4656 83.5083 36.1937L83.5363 41.0445ZM107.267 32.5366L107.301 30.8949C107.325 30.493 108.394 30.3986 108.43 30.8949L108.48 41.153C108.372 41.6573 107.333 41.5549 107.267 41.153L107.193 39.662C105.346 41.6332 102.354 41.9427 99.9401 40.6004C97.3002 38.5367 96.8559 34.4335 99.4218 31.9076C101.477 30.063 105.454 30.1393 107.267 32.5285V32.5366ZM103.09 31.8996C103.901 31.9127 104.689 32.1658 105.356 32.6272C106.023 33.0886 106.54 33.7376 106.841 34.4929C107.142 35.2481 107.214 36.0758 107.048 36.872C106.882 37.6682 106.485 38.3975 105.908 38.9681C105.331 39.5387 104.598 39.9252 103.802 40.0792C103.007 40.2331 102.184 40.1476 101.436 39.8334C100.689 39.5191 100.051 38.9902 99.6019 38.3129C99.153 37.6357 98.9135 36.8404 98.9134 36.0269C98.9229 34.9238 99.3681 33.8694 100.151 33.0956C100.934 32.3217 101.992 31.8916 103.09 31.8996ZM111.138 41.0867L111.112 30.8768C111.212 30.4749 112.257 30.3885 112.349 30.9029V32.3437C115.974 29.0723 121.94 30.9692 121.866 35.5909L121.916 41.1108C121.916 41.573 120.695 41.6071 120.655 41.1369L120.629 35.617C120.337 33.7382 119.402 32.4301 117.387 32.0684C114.463 31.4133 112.323 33.7121 112.291 35.5166L112.331 41.1791C112.131 41.6332 111.17 41.5569 111.13 41.0867H111.138ZM66.416 41.1972L66.3239 30.9692C66.476 30.4407 67.5027 30.4588 67.5848 30.9692V41.1791C67.4847 41.5488 66.45 41.5308 66.416 41.1972ZM66.3739 28.8292L66.3919 27.1091C66.3739 26.7072 67.5448 26.6811 67.6028 27.093L67.5688 28.779C67.5688 29.1909 66.3999 29.1909 66.3679 28.8292H66.3739Z" fill="#00486A"/>
<path fill-rule="evenodd" clip-rule="evenodd" d="M0.00415933 54.0655C0.00415933 52.7715 0.346406 51.7587 1.03891 51.0273C1.38415 50.6627 1.80278 50.3761 2.26694 50.1866C2.7311 49.997 3.23014 49.9089 3.73085 49.9281C4.41121 49.9175 5.08142 50.0947 5.66824 50.4405C6.24105 50.7797 6.70076 51.2818 6.9892 51.8833C7.29764 52.5358 7.45176 53.251 7.43952 53.9731C7.45243 54.7111 7.28909 55.4415 6.96318 56.1031C6.66442 56.6987 6.19263 57.1892 5.6102 57.5097C5.03225 57.829 4.38248 57.9943 3.72284 57.9899C3.032 58.0018 2.35172 57.8187 1.75942 57.4615C1.19012 57.1124 0.734001 56.6049 0.446478 56.0006C0.154063 55.3943 0.00281047 54.7292 0.00415933 54.0555V54.0655ZM1.06493 54.0897C1.06493 55.0301 1.3151 55.7675 1.82547 56.3C2.07027 56.5593 2.36511 56.7658 2.69201 56.9069C3.01891 57.048 3.37101 57.1208 3.72684 57.1208C4.08268 57.1208 4.43478 57.048 4.76168 56.9069C5.08858 56.7658 5.38342 56.5593 5.62822 56.3C6.13058 55.7555 6.38076 54.9838 6.38076 53.9771C6.391 53.4072 6.28333 52.8413 6.06453 52.3153C5.86563 51.8641 5.53796 51.4822 5.12294 51.2179C4.70793 50.9536 4.22418 50.8187 3.73285 50.8304C3.38698 50.823 3.04315 50.8853 2.72171 51.0137C2.40027 51.1421 2.10776 51.3339 1.8615 51.5779C1.33512 52.0802 1.06092 52.9202 1.06092 54.0937L1.06493 54.0897ZM20.0246 57.8634L17.0224 50.0628H18.1332L20.1547 55.7334C20.3148 56.1875 20.4569 56.6135 20.565 57.0093C20.6831 56.5813 20.8252 56.1614 20.9833 55.7334L23.0808 50.0628H24.1336L21.1014 57.8634H20.0246ZM34.1208 57.8634V50.0628H39.7448V50.9771H35.1555V53.3763H39.4426V54.2906H35.1555V56.9491H39.929V57.8634H34.1208ZM50.4145 57.8634V50.0628H53.865C54.3997 50.0366 54.9348 50.1046 55.4461 50.2637C55.8071 50.407 56.11 50.6673 56.3068 51.0032C56.5219 51.357 56.6342 51.7642 56.631 52.1787C56.6437 52.6998 56.4518 53.205 56.0966 53.5853C55.7364 53.9731 55.184 54.2062 54.4434 54.3167C54.6655 54.4164 54.8729 54.5462 55.0599 54.7025C55.3869 55.011 55.6735 55.3601 55.9125 55.7414L57.2575 57.8634H55.9725L54.9438 56.2458C54.6436 55.7776 54.3914 55.4159 54.1993 55.1627C54.054 54.9636 53.8792 54.7881 53.6809 54.6422C53.5372 54.5506 53.3797 54.4827 53.2145 54.4413C53.024 54.411 52.831 54.3989 52.6381 54.4051H51.4493V57.8694L50.4145 57.8634ZM51.4493 53.5029H53.6509C54.0237 53.5146 54.396 53.4665 54.7537 53.3602C54.9993 53.273 55.21 53.108 55.3541 52.89C55.4866 52.6797 55.556 52.4356 55.5542 52.1867C55.5576 52.0152 55.5235 51.845 55.4543 51.6881C55.3852 51.5312 55.2826 51.3914 55.1539 51.2785C54.8857 51.0373 54.4594 50.9188 53.891 50.9188H51.4493V53.5029ZM66.9444 55.3536L67.9131 55.2692C67.9383 55.6118 68.0469 55.9431 68.2294 56.2337C68.4306 56.5062 68.7018 56.7188 69.0139 56.8486C69.3931 57.0114 69.8025 57.0909 70.2148 57.0817C70.5676 57.0894 70.9187 57.03 71.2496 56.9069C71.5155 56.8139 71.7481 56.644 71.918 56.4186C72.0642 56.2263 72.1436 55.9913 72.1442 55.7494C72.1459 55.5181 72.0697 55.2929 71.928 55.1104C71.7434 54.8946 71.5021 54.7352 71.2315 54.6503C71.0314 54.5739 70.5571 54.4493 69.8465 54.2705C69.329 54.1638 68.8244 54.0015 68.3415 53.7862C68.0094 53.6156 67.7252 53.3641 67.5149 53.0548C67.3307 52.7644 67.2347 52.4265 67.2387 52.0822C67.2408 51.6873 67.36 51.3019 67.5809 50.975C67.8138 50.6183 68.1538 50.3452 68.5516 50.1954C69.0058 50.0125 69.4913 49.921 69.9806 49.9261C70.5029 49.9161 71.022 50.0104 71.5077 50.2034C71.9201 50.3686 72.2732 50.6551 72.5205 51.0253C72.7611 51.3923 72.8942 51.8198 72.9047 52.2591L71.918 52.3334C71.8912 51.9049 71.6961 51.5045 71.3756 51.2202C71.0734 50.967 70.6131 50.8424 70.0207 50.8424C69.3942 50.8424 68.9439 50.957 68.6597 51.186C68.5293 51.2817 68.4233 51.4069 68.3502 51.5514C68.2772 51.696 68.2392 51.8558 68.2394 52.0179C68.2354 52.1479 68.2605 52.2771 68.3128 52.396C68.3651 52.5149 68.4433 52.6206 68.5416 52.7052C68.7417 52.89 69.2601 53.0749 70.0947 53.2678C70.6822 53.3797 71.2584 53.5451 71.816 53.7621C72.2171 53.932 72.5635 54.2103 72.8167 54.5659C73.0292 54.8953 73.1393 55.2807 73.1329 55.6731C73.1316 56.0906 73.0099 56.4989 72.7827 56.8486C72.5276 57.2217 72.1751 57.5172 71.7639 57.7026C71.2925 57.9107 70.7818 58.0142 70.2668 58.006C69.6613 58.0263 69.0582 57.9202 68.4956 57.6946C68.0368 57.5052 67.647 57.179 67.3788 56.7602C67.1026 56.3428 66.9519 55.8546 66.9444 55.3536ZM83.5965 57.8613V50.0628H89.2125V50.9771H84.6232V53.3763H88.9183V54.2906H84.6232V56.9491H89.3966V57.8634L83.5965 57.8613ZM99.0076 57.8613L101.99 50.0608H103.119L106.285 57.8613H105.114L104.211 55.4983H100.943L100.1 57.8613H99.0076ZM101.263 54.6603H103.911L103.111 52.4942C102.868 51.8431 102.676 51.2885 102.55 50.8665C102.44 51.3762 102.298 51.8782 102.124 52.3696L101.263 54.6603ZM115.816 55.3536L116.784 55.2692C116.812 55.6116 116.921 55.9424 117.103 56.2337C117.302 56.5089 117.575 56.722 117.889 56.8486C118.268 57.0115 118.678 57.091 119.09 57.0817C119.443 57.0894 119.794 57.03 120.125 56.9069C120.391 56.8139 120.623 56.644 120.793 56.4186C120.94 56.2267 121.02 55.9914 121.019 55.7494C121.022 55.5175 120.945 55.2918 120.801 55.1104C120.614 54.8959 120.372 54.7368 120.101 54.6503C119.901 54.5739 119.432 54.4493 118.722 54.2705C118.205 54.1646 117.701 54.0022 117.219 53.7862C116.886 53.6161 116.601 53.3646 116.39 53.0548C116.206 52.7644 116.11 52.4265 116.114 52.0822C116.117 51.6886 116.233 51.3042 116.448 50.975C116.687 50.6205 117.029 50.3483 117.427 50.1954C117.881 50.0117 118.367 49.9202 118.856 49.9261C119.376 49.9153 119.892 50.0096 120.375 50.2034C120.789 50.3689 121.145 50.6552 121.396 51.0253C121.629 51.3956 121.762 51.8211 121.78 52.2591L120.779 52.3334C120.769 52.1212 120.716 51.9133 120.624 51.7221C120.532 51.5308 120.402 51.3601 120.243 51.2202C119.933 50.967 119.482 50.8424 118.89 50.8424C118.263 50.8424 117.811 50.957 117.527 51.186C117.394 51.2801 117.286 51.4043 117.21 51.5486C117.135 51.6928 117.095 51.853 117.093 52.0159C117.091 52.1462 117.117 52.2752 117.171 52.394C117.224 52.5128 117.302 52.6183 117.401 52.7032C117.601 52.888 118.111 53.0729 118.948 53.2658C119.538 53.3777 120.117 53.5432 120.677 53.7601C121.08 53.9267 121.428 54.2056 121.678 54.5639C121.899 54.8901 122.013 55.2768 122.006 55.6711C122.005 56.0901 121.88 56.4994 121.646 56.8466C121.394 57.2228 121.041 57.5191 120.627 57.7006C120.156 57.9095 119.645 58.013 119.13 58.004C118.528 58.0238 117.928 57.9177 117.369 57.6926C116.912 57.5036 116.522 57.1825 116.248 56.7702C115.98 56.3497 115.832 55.8629 115.822 55.3636L115.816 55.3536Z" fill="#009EE0"/>
</g>
<defs>
<clipPath id="clip0_110_28">
<rect width="122" height="58" fill="white"/>
</clipPath>
</defs>
</svg>
