<svg width="30" height="30" viewBox="0 0 30 30" fill="none" xmlns="http://www.w3.org/2000/svg">
<path fill-rule="evenodd" clip-rule="evenodd" d="M15.0005 29.9995C10.9937 29.9995 7.22674 28.4392 4.3935 25.6061C1.56032 22.7731 0 19.0064 0 15.0001C0 10.9933 1.56032 7.22639 4.3935 4.39322C7.2267 1.56006 10.9937 -0.000244141 15.0005 -0.000244141C19.0069 -0.000244141 22.7735 1.56006 25.6066 4.39322C28.4397 7.22643 30 10.9933 30 15.0001C30 19.0064 28.4397 22.773 25.6066 25.6061C22.7735 28.4392 19.0068 29.9995 15.0005 29.9995ZM15.143 6.7561C14.0649 6.75612 13.0189 6.97111 12.034 7.3951C11.0497 7.81836 10.1879 8.39521 9.47259 9.1096C8.75887 9.82333 8.18202 10.6851 7.75808 11.671C7.33346 12.6573 7.11817 13.7056 7.11817 14.7868C7.11817 16.2767 7.50545 17.6708 8.26928 18.9304L6.82027 23.2441L11.2618 21.8167C12.4621 22.4808 13.7699 22.8175 15.1499 22.8175C16.2328 22.8175 17.2808 22.6025 18.2648 22.1785C19.2495 21.7555 20.1116 21.1786 20.8271 20.464C21.5408 19.7503 22.1177 18.8885 22.5416 17.9026C22.9656 16.9156 23.1806 15.8673 23.1806 14.7868C23.1815 13.7063 22.9665 12.658 22.5416 11.671C22.1184 10.6867 21.5415 9.82489 20.8271 9.1096C20.1132 8.39565 19.2511 7.81881 18.2648 7.3951C17.2808 6.97109 16.2328 6.7561 15.1499 6.7561H15.143ZM15.1499 21.4755C13.8281 21.4755 12.5918 21.1028 11.4751 20.3676L8.89751 21.1875L9.73901 18.7062C8.89104 17.5403 8.461 16.2213 8.461 14.7867C8.461 13.8888 8.63996 13.0161 8.99291 12.1929C9.34721 11.3686 9.82747 10.6501 10.4203 10.0572C11.0148 9.46366 11.7333 8.98341 12.556 8.6298C13.3793 8.27686 14.252 8.0979 15.1499 8.0979C16.0478 8.0979 16.9205 8.27686 17.7437 8.6298C18.5648 8.98273 19.2834 9.46298 19.8794 10.0572C20.4728 10.6506 20.9528 11.3691 21.3059 12.1929C21.6595 13.0154 21.8387 13.8881 21.8387 14.7867C21.8396 15.6832 21.6604 16.5559 21.3059 17.3805C20.9534 18.2027 20.4735 18.9212 19.8794 19.5162C19.285 20.1097 18.5664 20.59 17.7437 20.9436C16.9196 21.2965 16.0469 21.4755 15.1499 21.4755ZM12.4768 10.8564C12.2785 10.8564 12.092 10.9352 11.9224 11.0904C11.4208 11.5643 11.1555 12.1306 11.134 12.7734V12.8589C11.1268 13.474 11.3812 14.1693 11.89 14.9253C12.4282 15.7173 12.9587 16.3801 13.4669 16.8954C13.976 17.4117 14.5852 17.8347 15.2777 18.1527C16.218 18.5911 16.899 18.8133 17.3018 18.8133C17.6332 18.8133 17.9987 18.7183 18.3881 18.5307C18.7763 18.3425 19.0306 18.1075 19.1441 17.8323C19.2641 17.5287 19.325 17.2565 19.325 17.0232C19.325 16.9533 19.318 16.8997 19.3043 16.8639C19.2684 16.8002 18.9474 16.6103 18.3503 16.2996C17.7539 15.9885 17.4045 15.8307 17.3117 15.8307C17.2195 15.8307 17.0329 16.0046 16.7573 16.3473C16.4809 16.6901 16.2874 16.8639 16.1822 16.8639C16.1111 16.8639 16.0324 16.8385 15.9482 16.7883C15.279 16.4511 14.7378 16.0892 14.3399 15.7128C13.8591 15.2607 13.4936 14.7699 13.2535 14.2539C13.2178 14.1963 13.2004 14.1438 13.2004 14.0937C13.2004 14.0236 13.3243 13.8573 13.5686 13.5996C13.8122 13.3417 13.9358 13.1354 13.9358 12.9867C13.9348 12.9365 13.8427 12.6601 13.6694 12.1875C13.5046 11.7393 13.3796 11.4066 13.3174 11.2506C13.2608 11.1015 13.2054 11.0028 13.1527 10.9572C13.0995 10.9113 13.0045 10.8879 12.8701 10.8879C12.8225 10.8879 12.7565 10.8829 12.6685 10.8726C12.5835 10.8619 12.519 10.8564 12.4768 10.8564Z" fill="white"/>
</svg>
