<svg width="30" height="30" viewBox="0 0 30 30" fill="none" xmlns="http://www.w3.org/2000/svg">
<path fill-rule="evenodd" clip-rule="evenodd" d="M15.0009 30.0002C8.9331 30.0002 3.46354 26.3453 1.14205 20.7399C-1.17944 15.1353 0.104015 8.68322 4.39421 4.39324C10.2518 -1.46472 19.749 -1.46472 25.6067 4.39314C31.4644 10.251 31.4644 19.7485 25.6067 25.6063C22.8002 28.4288 18.9812 30.011 15.0009 30.0002ZM15.0009 9.14624C14.9659 9.14624 11.48 9.14624 9.17708 9.31324L9.07008 9.32424C8.47918 9.34317 7.91904 9.59221 7.50912 10.0182C7.15447 10.5053 6.92694 11.0731 6.84714 11.6702C6.74344 12.5666 6.68769 13.4679 6.68015 14.3702V15.6332C6.68781 16.5339 6.74356 17.4335 6.84714 18.3282C6.92463 18.9234 7.14941 19.4899 7.50112 19.9762C7.93532 20.3928 8.50773 20.6349 9.10908 20.6562C9.19708 20.6662 9.27207 20.6762 9.33607 20.6872C10.648 20.8122 14.9539 20.8532 14.9969 20.8542C15.0399 20.8552 18.5158 20.8472 20.8248 20.6802L20.9318 20.6692C21.5224 20.6479 22.082 20.3992 22.4937 19.9752C22.8478 19.488 23.075 18.9203 23.1547 18.3232C23.2582 17.4285 23.3139 16.5289 23.3217 15.6282V14.3672C23.3142 13.4649 23.2585 12.5636 23.1547 11.6672V11.6602C23.0769 11.0647 22.8491 10.4987 22.4927 10.0152C22.0808 9.59208 21.5219 9.34359 20.9318 9.32124L20.8258 9.31024C18.5258 9.14424 15.0369 9.14224 15.0019 9.14224L15.0009 9.14624ZM13.281 17.1592V12.4822L17.7808 14.8292L13.281 17.1592Z" fill="#F5F5F5"/>
</svg>
